<?xml version="1.0" encoding="utf-8" standalone="no"?>
<!DOCTYPE svg PUBLIC "-//W3C//DTD SVG 1.1//EN"
  "http://www.w3.org/Graphics/SVG/1.1/DTD/svg11.dtd">
<!-- Created with matplotlib (http://matplotlib.org/) -->
<svg height="707.04pt" version="1.1" viewBox="0 0 1382.4 707.04" width="1382.4pt" xmlns="http://www.w3.org/2000/svg" xmlns:xlink="http://www.w3.org/1999/xlink">
 <defs>
  <style type="text/css">
*{stroke-linecap:butt;stroke-linejoin:round;}
  </style>
 </defs>
 <g id="figure_1">
  <g id="patch_1">
   <path d="M 0 707.04 
L 1382.4 707.04 
L 1382.4 0 
L 0 0 
z
" style="fill:#ffffff;"/>
  </g>
  <g id="axes_1">
   <g id="patch_2">
    <path d="M 172.8 629.2656 
L 1244.16 629.2656 
L 1244.16 84.8448 
L 172.8 84.8448 
z
" style="fill:#ffffff;"/>
   </g>
   <g id="matplotlib.axis_1">
    <g id="xtick_1">
     <g id="line2d_1">
      <defs>
       <path d="M 0 0 
L 0 3.5 
" id="m52bceabcd1" style="stroke:#000000;stroke-width:0.8;"/>
      </defs>
      <g>
       <use style="stroke:#000000;stroke-width:0.8;" x="377.365061" xlink:href="#m52bceabcd1" y="629.2656"/>
      </g>
     </g>
     <g id="text_1">
      <!-- 0.2 -->
      <defs>
       <path d="M 31.78125 66.40625 
Q 24.171875 66.40625 20.328125 58.90625 
Q 16.5 51.421875 16.5 36.375 
Q 16.5 21.390625 20.328125 13.890625 
Q 24.171875 6.390625 31.78125 6.390625 
Q 39.453125 6.390625 43.28125 13.890625 
Q 47.125 21.390625 47.125 36.375 
Q 47.125 51.421875 43.28125 58.90625 
Q 39.453125 66.40625 31.78125 66.40625 
z
M 31.78125 74.21875 
Q 44.046875 74.21875 50.515625 64.515625 
Q 56.984375 54.828125 56.984375 36.375 
Q 56.984375 17.96875 50.515625 8.265625 
Q 44.046875 -1.421875 31.78125 -1.421875 
Q 19.53125 -1.421875 13.0625 8.265625 
Q 6.59375 17.96875 6.59375 36.375 
Q 6.59375 54.828125 13.0625 64.515625 
Q 19.53125 74.21875 31.78125 74.21875 
z
" id="DejaVuSans-30"/>
       <path d="M 10.6875 12.40625 
L 21 12.40625 
L 21 0 
L 10.6875 0 
z
" id="DejaVuSans-2e"/>
       <path d="M 19.1875 8.296875 
L 53.609375 8.296875 
L 53.609375 0 
L 7.328125 0 
L 7.328125 8.296875 
Q 12.9375 14.109375 22.625 23.890625 
Q 32.328125 33.6875 34.8125 36.53125 
Q 39.546875 41.84375 41.421875 45.53125 
Q 43.3125 49.21875 43.3125 52.78125 
Q 43.3125 58.59375 39.234375 62.25 
Q 35.15625 65.921875 28.609375 65.921875 
Q 23.96875 65.921875 18.8125 64.3125 
Q 13.671875 62.703125 7.8125 59.421875 
L 7.8125 69.390625 
Q 13.765625 71.78125 18.9375 73 
Q 24.125 74.21875 28.421875 74.21875 
Q 39.75 74.21875 46.484375 68.546875 
Q 53.21875 62.890625 53.21875 53.421875 
Q 53.21875 48.921875 51.53125 44.890625 
Q 49.859375 40.875 45.40625 35.40625 
Q 44.1875 33.984375 37.640625 27.21875 
Q 31.109375 20.453125 19.1875 8.296875 
z
" id="DejaVuSans-32"/>
      </defs>
      <g transform="translate(369.413498 643.864037)scale(0.1 -0.1)">
       <use xlink:href="#DejaVuSans-30"/>
       <use x="63.623047" xlink:href="#DejaVuSans-2e"/>
       <use x="95.410156" xlink:href="#DejaVuSans-32"/>
      </g>
     </g>
    </g>
    <g id="xtick_2">
     <g id="line2d_2">
      <g>
       <use style="stroke:#000000;stroke-width:0.8;" x="592.170176" xlink:href="#m52bceabcd1" y="629.2656"/>
      </g>
     </g>
     <g id="text_2">
      <!-- 0.4 -->
      <defs>
       <path d="M 37.796875 64.3125 
L 12.890625 25.390625 
L 37.796875 25.390625 
z
M 35.203125 72.90625 
L 47.609375 72.90625 
L 47.609375 25.390625 
L 58.015625 25.390625 
L 58.015625 17.1875 
L 47.609375 17.1875 
L 47.609375 0 
L 37.796875 0 
L 37.796875 17.1875 
L 4.890625 17.1875 
L 4.890625 26.703125 
z
" id="DejaVuSans-34"/>
      </defs>
      <g transform="translate(584.218613 643.864037)scale(0.1 -0.1)">
       <use xlink:href="#DejaVuSans-30"/>
       <use x="63.623047" xlink:href="#DejaVuSans-2e"/>
       <use x="95.410156" xlink:href="#DejaVuSans-34"/>
      </g>
     </g>
    </g>
    <g id="xtick_3">
     <g id="line2d_3">
      <g>
       <use style="stroke:#000000;stroke-width:0.8;" x="806.975291" xlink:href="#m52bceabcd1" y="629.2656"/>
      </g>
     </g>
     <g id="text_3">
      <!-- 0.6 -->
      <defs>
       <path d="M 33.015625 40.375 
Q 26.375 40.375 22.484375 35.828125 
Q 18.609375 31.296875 18.609375 23.390625 
Q 18.609375 15.53125 22.484375 10.953125 
Q 26.375 6.390625 33.015625 6.390625 
Q 39.65625 6.390625 43.53125 10.953125 
Q 47.40625 15.53125 47.40625 23.390625 
Q 47.40625 31.296875 43.53125 35.828125 
Q 39.65625 40.375 33.015625 40.375 
z
M 52.59375 71.296875 
L 52.59375 62.3125 
Q 48.875 64.0625 45.09375 64.984375 
Q 41.3125 65.921875 37.59375 65.921875 
Q 27.828125 65.921875 22.671875 59.328125 
Q 17.53125 52.734375 16.796875 39.40625 
Q 19.671875 43.65625 24.015625 45.921875 
Q 28.375 48.1875 33.59375 48.1875 
Q 44.578125 48.1875 50.953125 41.515625 
Q 57.328125 34.859375 57.328125 23.390625 
Q 57.328125 12.15625 50.6875 5.359375 
Q 44.046875 -1.421875 33.015625 -1.421875 
Q 20.359375 -1.421875 13.671875 8.265625 
Q 6.984375 17.96875 6.984375 36.375 
Q 6.984375 53.65625 15.1875 63.9375 
Q 23.390625 74.21875 37.203125 74.21875 
Q 40.921875 74.21875 44.703125 73.484375 
Q 48.484375 72.75 52.59375 71.296875 
z
" id="DejaVuSans-36"/>
      </defs>
      <g transform="translate(799.023729 643.864037)scale(0.1 -0.1)">
       <use xlink:href="#DejaVuSans-30"/>
       <use x="63.623047" xlink:href="#DejaVuSans-2e"/>
       <use x="95.410156" xlink:href="#DejaVuSans-36"/>
      </g>
     </g>
    </g>
    <g id="xtick_4">
     <g id="line2d_4">
      <g>
       <use style="stroke:#000000;stroke-width:0.8;" x="1021.780406" xlink:href="#m52bceabcd1" y="629.2656"/>
      </g>
     </g>
     <g id="text_4">
      <!-- 0.8 -->
      <defs>
       <path d="M 31.78125 34.625 
Q 24.75 34.625 20.71875 30.859375 
Q 16.703125 27.09375 16.703125 20.515625 
Q 16.703125 13.921875 20.71875 10.15625 
Q 24.75 6.390625 31.78125 6.390625 
Q 38.8125 6.390625 42.859375 10.171875 
Q 46.921875 13.96875 46.921875 20.515625 
Q 46.921875 27.09375 42.890625 30.859375 
Q 38.875 34.625 31.78125 34.625 
z
M 21.921875 38.8125 
Q 15.578125 40.375 12.03125 44.71875 
Q 8.5 49.078125 8.5 55.328125 
Q 8.5 64.0625 14.71875 69.140625 
Q 20.953125 74.21875 31.78125 74.21875 
Q 42.671875 74.21875 48.875 69.140625 
Q 55.078125 64.0625 55.078125 55.328125 
Q 55.078125 49.078125 51.53125 44.71875 
Q 48 40.375 41.703125 38.8125 
Q 48.828125 37.15625 52.796875 32.3125 
Q 56.78125 27.484375 56.78125 20.515625 
Q 56.78125 9.90625 50.3125 4.234375 
Q 43.84375 -1.421875 31.78125 -1.421875 
Q 19.734375 -1.421875 13.25 4.234375 
Q 6.78125 9.90625 6.78125 20.515625 
Q 6.78125 27.484375 10.78125 32.3125 
Q 14.796875 37.15625 21.921875 38.8125 
z
M 18.3125 54.390625 
Q 18.3125 48.734375 21.84375 45.5625 
Q 25.390625 42.390625 31.78125 42.390625 
Q 38.140625 42.390625 41.71875 45.5625 
Q 45.3125 48.734375 45.3125 54.390625 
Q 45.3125 60.0625 41.71875 63.234375 
Q 38.140625 66.40625 31.78125 66.40625 
Q 25.390625 66.40625 21.84375 63.234375 
Q 18.3125 60.0625 18.3125 54.390625 
z
" id="DejaVuSans-38"/>
      </defs>
      <g transform="translate(1013.828844 643.864037)scale(0.1 -0.1)">
       <use xlink:href="#DejaVuSans-30"/>
       <use x="63.623047" xlink:href="#DejaVuSans-2e"/>
       <use x="95.410156" xlink:href="#DejaVuSans-38"/>
      </g>
     </g>
    </g>
    <g id="xtick_5">
     <g id="line2d_5">
      <g>
       <use style="stroke:#000000;stroke-width:0.8;" x="1236.585521" xlink:href="#m52bceabcd1" y="629.2656"/>
      </g>
     </g>
     <g id="text_5">
      <!-- 1.0 -->
      <defs>
       <path d="M 12.40625 8.296875 
L 28.515625 8.296875 
L 28.515625 63.921875 
L 10.984375 60.40625 
L 10.984375 69.390625 
L 28.421875 72.90625 
L 38.28125 72.90625 
L 38.28125 8.296875 
L 54.390625 8.296875 
L 54.390625 0 
L 12.40625 0 
z
" id="DejaVuSans-31"/>
      </defs>
      <g transform="translate(1228.633959 643.864037)scale(0.1 -0.1)">
       <use xlink:href="#DejaVuSans-31"/>
       <use x="63.623047" xlink:href="#DejaVuSans-2e"/>
       <use x="95.410156" xlink:href="#DejaVuSans-30"/>
      </g>
     </g>
    </g>
    <g id="text_6">
     <!-- Element -->
     <defs>
      <path d="M 9.8125 72.90625 
L 55.90625 72.90625 
L 55.90625 64.59375 
L 19.671875 64.59375 
L 19.671875 43.015625 
L 54.390625 43.015625 
L 54.390625 34.71875 
L 19.671875 34.71875 
L 19.671875 8.296875 
L 56.78125 8.296875 
L 56.78125 0 
L 9.8125 0 
z
" id="DejaVuSans-45"/>
      <path d="M 9.421875 75.984375 
L 18.40625 75.984375 
L 18.40625 0 
L 9.421875 0 
z
" id="DejaVuSans-6c"/>
      <path d="M 56.203125 29.59375 
L 56.203125 25.203125 
L 14.890625 25.203125 
Q 15.484375 15.921875 20.484375 11.0625 
Q 25.484375 6.203125 34.421875 6.203125 
Q 39.59375 6.203125 44.453125 7.46875 
Q 49.3125 8.734375 54.109375 11.28125 
L 54.109375 2.78125 
Q 49.265625 0.734375 44.1875 -0.34375 
Q 39.109375 -1.421875 33.890625 -1.421875 
Q 20.796875 -1.421875 13.15625 6.1875 
Q 5.515625 13.8125 5.515625 26.8125 
Q 5.515625 40.234375 12.765625 48.109375 
Q 20.015625 56 32.328125 56 
Q 43.359375 56 49.78125 48.890625 
Q 56.203125 41.796875 56.203125 29.59375 
z
M 47.21875 32.234375 
Q 47.125 39.59375 43.09375 43.984375 
Q 39.0625 48.390625 32.421875 48.390625 
Q 24.90625 48.390625 20.390625 44.140625 
Q 15.875 39.890625 15.1875 32.171875 
z
" id="DejaVuSans-65"/>
      <path d="M 52 44.1875 
Q 55.375 50.25 60.0625 53.125 
Q 64.75 56 71.09375 56 
Q 79.640625 56 84.28125 50.015625 
Q 88.921875 44.046875 88.921875 33.015625 
L 88.921875 0 
L 79.890625 0 
L 79.890625 32.71875 
Q 79.890625 40.578125 77.09375 44.375 
Q 74.3125 48.1875 68.609375 48.1875 
Q 61.625 48.1875 57.5625 43.546875 
Q 53.515625 38.921875 53.515625 30.90625 
L 53.515625 0 
L 44.484375 0 
L 44.484375 32.71875 
Q 44.484375 40.625 41.703125 44.40625 
Q 38.921875 48.1875 33.109375 48.1875 
Q 26.21875 48.1875 22.15625 43.53125 
Q 18.109375 38.875 18.109375 30.90625 
L 18.109375 0 
L 9.078125 0 
L 9.078125 54.6875 
L 18.109375 54.6875 
L 18.109375 46.1875 
Q 21.1875 51.21875 25.484375 53.609375 
Q 29.78125 56 35.6875 56 
Q 41.65625 56 45.828125 52.96875 
Q 50 49.953125 52 44.1875 
z
" id="DejaVuSans-6d"/>
      <path d="M 54.890625 33.015625 
L 54.890625 0 
L 45.90625 0 
L 45.90625 32.71875 
Q 45.90625 40.484375 42.875 44.328125 
Q 39.84375 48.1875 33.796875 48.1875 
Q 26.515625 48.1875 22.3125 43.546875 
Q 18.109375 38.921875 18.109375 30.90625 
L 18.109375 0 
L 9.078125 0 
L 9.078125 54.6875 
L 18.109375 54.6875 
L 18.109375 46.1875 
Q 21.34375 51.125 25.703125 53.5625 
Q 30.078125 56 35.796875 56 
Q 45.21875 56 50.046875 50.171875 
Q 54.890625 44.34375 54.890625 33.015625 
z
" id="DejaVuSans-6e"/>
      <path d="M 18.3125 70.21875 
L 18.3125 54.6875 
L 36.8125 54.6875 
L 36.8125 47.703125 
L 18.3125 47.703125 
L 18.3125 18.015625 
Q 18.3125 11.328125 20.140625 9.421875 
Q 21.96875 7.515625 27.59375 7.515625 
L 36.8125 7.515625 
L 36.8125 0 
L 27.59375 0 
Q 17.1875 0 13.234375 3.875 
Q 9.28125 7.765625 9.28125 18.015625 
L 9.28125 47.703125 
L 2.6875 47.703125 
L 2.6875 54.6875 
L 9.28125 54.6875 
L 9.28125 70.21875 
z
" id="DejaVuSans-74"/>
     </defs>
     <g transform="translate(683.639062 659.06185)scale(0.12 -0.12)">
      <use xlink:href="#DejaVuSans-45"/>
      <use x="63.183594" xlink:href="#DejaVuSans-6c"/>
      <use x="90.966797" xlink:href="#DejaVuSans-65"/>
      <use x="152.490234" xlink:href="#DejaVuSans-6d"/>
      <use x="249.902344" xlink:href="#DejaVuSans-65"/>
      <use x="311.425781" xlink:href="#DejaVuSans-6e"/>
      <use x="374.804688" xlink:href="#DejaVuSans-74"/>
     </g>
    </g>
   </g>
   <g id="matplotlib.axis_2">
    <g id="ytick_1">
     <g id="line2d_6">
      <defs>
       <path d="M 0 0 
L -3.5 0 
" id="mf7403690a8" style="stroke:#000000;stroke-width:0.8;"/>
      </defs>
      <g>
       <use style="stroke:#000000;stroke-width:0.8;" x="172.8" xlink:href="#mf7403690a8" y="629.026203"/>
      </g>
     </g>
     <g id="text_7">
      <!-- 0.0 -->
      <g transform="translate(149.896875 632.825422)scale(0.1 -0.1)">
       <use xlink:href="#DejaVuSans-30"/>
       <use x="63.623047" xlink:href="#DejaVuSans-2e"/>
       <use x="95.410156" xlink:href="#DejaVuSans-30"/>
      </g>
     </g>
    </g>
    <g id="ytick_2">
     <g id="line2d_7">
      <g>
       <use style="stroke:#000000;stroke-width:0.8;" x="172.8" xlink:href="#mf7403690a8" y="520.709312"/>
      </g>
     </g>
     <g id="text_8">
      <!-- 0.2 -->
      <g transform="translate(149.896875 524.508531)scale(0.1 -0.1)">
       <use xlink:href="#DejaVuSans-30"/>
       <use x="63.623047" xlink:href="#DejaVuSans-2e"/>
       <use x="95.410156" xlink:href="#DejaVuSans-32"/>
      </g>
     </g>
    </g>
    <g id="ytick_3">
     <g id="line2d_8">
      <g>
       <use style="stroke:#000000;stroke-width:0.8;" x="172.8" xlink:href="#mf7403690a8" y="412.392421"/>
      </g>
     </g>
     <g id="text_9">
      <!-- 0.4 -->
      <g transform="translate(149.896875 416.19164)scale(0.1 -0.1)">
       <use xlink:href="#DejaVuSans-30"/>
       <use x="63.623047" xlink:href="#DejaVuSans-2e"/>
       <use x="95.410156" xlink:href="#DejaVuSans-34"/>
      </g>
     </g>
    </g>
    <g id="ytick_4">
     <g id="line2d_9">
      <g>
       <use style="stroke:#000000;stroke-width:0.8;" x="172.8" xlink:href="#mf7403690a8" y="304.07553"/>
      </g>
     </g>
     <g id="text_10">
      <!-- 0.6 -->
      <g transform="translate(149.896875 307.874749)scale(0.1 -0.1)">
       <use xlink:href="#DejaVuSans-30"/>
       <use x="63.623047" xlink:href="#DejaVuSans-2e"/>
       <use x="95.410156" xlink:href="#DejaVuSans-36"/>
      </g>
     </g>
    </g>
    <g id="ytick_5">
     <g id="line2d_10">
      <g>
       <use style="stroke:#000000;stroke-width:0.8;" x="172.8" xlink:href="#mf7403690a8" y="195.75864"/>
      </g>
     </g>
     <g id="text_11">
      <!-- 0.8 -->
      <g transform="translate(149.896875 199.557858)scale(0.1 -0.1)">
       <use xlink:href="#DejaVuSans-30"/>
       <use x="63.623047" xlink:href="#DejaVuSans-2e"/>
       <use x="95.410156" xlink:href="#DejaVuSans-38"/>
      </g>
     </g>
    </g>
    <g id="ytick_6">
     <g id="line2d_11">
      <g>
       <use style="stroke:#000000;stroke-width:0.8;" x="172.8" xlink:href="#mf7403690a8" y="87.441749"/>
      </g>
     </g>
     <g id="text_12">
      <!-- 1.0 -->
      <g transform="translate(149.896875 91.240967)scale(0.1 -0.1)">
       <use xlink:href="#DejaVuSans-31"/>
       <use x="63.623047" xlink:href="#DejaVuSans-2e"/>
       <use x="95.410156" xlink:href="#DejaVuSans-30"/>
      </g>
     </g>
    </g>
    <g id="text_13">
     <!-- Intensity -->
     <defs>
      <path d="M 9.8125 72.90625 
L 19.671875 72.90625 
L 19.671875 0 
L 9.8125 0 
z
" id="DejaVuSans-49"/>
      <path d="M 44.28125 53.078125 
L 44.28125 44.578125 
Q 40.484375 46.53125 36.375 47.5 
Q 32.28125 48.484375 27.875 48.484375 
Q 21.1875 48.484375 17.84375 46.4375 
Q 14.5 44.390625 14.5 40.28125 
Q 14.5 37.15625 16.890625 35.375 
Q 19.28125 33.59375 26.515625 31.984375 
L 29.59375 31.296875 
Q 39.15625 29.25 43.1875 25.515625 
Q 47.21875 21.78125 47.21875 15.09375 
Q 47.21875 7.46875 41.1875 3.015625 
Q 35.15625 -1.421875 24.609375 -1.421875 
Q 20.21875 -1.421875 15.453125 -0.5625 
Q 10.6875 0.296875 5.421875 2 
L 5.421875 11.28125 
Q 10.40625 8.6875 15.234375 7.390625 
Q 20.0625 6.109375 24.8125 6.109375 
Q 31.15625 6.109375 34.5625 8.28125 
Q 37.984375 10.453125 37.984375 14.40625 
Q 37.984375 18.0625 35.515625 20.015625 
Q 33.0625 21.96875 24.703125 23.78125 
L 21.578125 24.515625 
Q 13.234375 26.265625 9.515625 29.90625 
Q 5.8125 33.546875 5.8125 39.890625 
Q 5.8125 47.609375 11.28125 51.796875 
Q 16.75 56 26.8125 56 
Q 31.78125 56 36.171875 55.265625 
Q 40.578125 54.546875 44.28125 53.078125 
z
" id="DejaVuSans-73"/>
      <path d="M 9.421875 54.6875 
L 18.40625 54.6875 
L 18.40625 0 
L 9.421875 0 
z
M 9.421875 75.984375 
L 18.40625 75.984375 
L 18.40625 64.59375 
L 9.421875 64.59375 
z
" id="DejaVuSans-69"/>
      <path d="M 32.171875 -5.078125 
Q 28.375 -14.84375 24.75 -17.8125 
Q 21.140625 -20.796875 15.09375 -20.796875 
L 7.90625 -20.796875 
L 7.90625 -13.28125 
L 13.1875 -13.28125 
Q 16.890625 -13.28125 18.9375 -11.515625 
Q 21 -9.765625 23.484375 -3.21875 
L 25.09375 0.875 
L 2.984375 54.6875 
L 12.5 54.6875 
L 29.59375 11.921875 
L 46.6875 54.6875 
L 56.203125 54.6875 
z
" id="DejaVuSans-79"/>
     </defs>
     <g transform="translate(143.40125 383.1702)rotate(-90)scale(0.12 -0.12)">
      <use xlink:href="#DejaVuSans-49"/>
      <use x="29.492188" xlink:href="#DejaVuSans-6e"/>
      <use x="92.871094" xlink:href="#DejaVuSans-74"/>
      <use x="132.080078" xlink:href="#DejaVuSans-65"/>
      <use x="193.603516" xlink:href="#DejaVuSans-6e"/>
      <use x="256.982422" xlink:href="#DejaVuSans-73"/>
      <use x="309.082031" xlink:href="#DejaVuSans-69"/>
      <use x="336.865234" xlink:href="#DejaVuSans-74"/>
      <use x="376.074219" xlink:href="#DejaVuSans-79"/>
     </g>
    </g>
   </g>
   <g id="line2d_12">
    <path clip-path="url(#pd8440b06e6)" d="M 173.300201 524.194134 
L 177.486364 516.965157 
L 181.672527 509.403134 
L 185.858689 501.507186 
L 190.044852 493.277801 
L 194.231015 484.716928 
L 198.417177 475.828056 
L 202.60334 466.61629 
L 206.789503 457.088428 
L 210.975666 447.253015 
L 219.347991 426.702801 
L 227.720316 405.070867 
L 236.092642 382.492832 
L 244.464967 359.134822 
L 257.023455 323.071525 
L 282.140431 250.246648 
L 290.512756 226.777784 
L 298.885082 204.209911 
L 303.071244 193.35967 
L 307.257407 182.849403 
L 311.44357 172.716692 
L 315.629732 162.99842 
L 319.815895 153.730546 
L 324.002058 144.947881 
L 328.18822 136.683877 
L 332.374383 128.97041 
L 336.560546 121.83758 
L 340.746708 115.313513 
L 344.932871 109.424178 
L 349.119034 104.193212 
L 353.305197 99.641766 
L 357.491359 95.78836 
L 361.677522 92.648758 
L 365.863685 90.235861 
L 370.049847 88.559619 
L 374.23601 87.626961 
L 378.422173 87.441749 
L 382.608335 88.004749 
L 386.794498 89.313631 
L 390.980661 91.362977 
L 395.166823 94.144327 
L 399.352986 97.64623 
L 403.539149 101.854328 
L 407.725311 106.751449 
L 411.911474 112.317728 
L 416.097637 118.530739 
L 420.283799 125.365647 
L 424.469962 132.795372 
L 428.656125 140.790766 
L 432.842287 149.320808 
L 437.02845 158.352799 
L 441.214613 167.852575 
L 445.400775 177.784716 
L 449.586938 188.112772 
L 453.773101 198.799476 
L 462.145426 221.09704 
L 470.517751 244.371431 
L 478.890077 268.317602 
L 512.379378 365.096654 
L 520.751704 388.275036 
L 529.124029 410.628639 
L 537.496354 431.999005 
L 545.86868 452.258233 
L 550.054842 461.939497 
L 554.241005 471.308672 
L 558.427168 480.358102 
L 562.61333 489.081853 
L 566.799493 497.475645 
L 570.985656 505.536778 
L 575.171818 513.26405 
L 579.357981 520.657675 
L 583.544144 527.719192 
L 587.730306 534.451371 
L 591.916469 540.858118 
L 596.102632 546.944381 
L 600.288794 552.716051 
L 604.474957 558.179866 
L 608.66112 563.343316 
L 612.847282 568.214549 
L 617.033445 572.80228 
L 621.219608 577.115701 
L 625.40577 581.164399 
L 629.591933 584.958273 
L 633.778096 588.507458 
L 637.964259 591.822251 
L 642.150421 594.913047 
L 646.336584 597.790269 
L 650.522747 600.46432 
L 654.708909 602.945522 
L 658.895072 605.244072 
L 663.081235 607.369998 
L 667.267397 609.333121 
L 671.45356 611.143022 
L 675.639723 612.809012 
L 679.825885 614.340112 
L 684.012048 615.745026 
L 692.384373 618.20946 
L 700.756699 620.265168 
L 709.129024 621.969313 
L 717.501349 623.373316 
L 725.873675 624.522951 
L 734.246 625.458561 
L 742.618325 626.215369 
L 755.176813 627.080779 
L 767.735301 627.696389 
L 784.479952 628.240805 
L 805.410766 628.632011 
L 830.527742 628.861523 
L 872.389368 628.99178 
L 985.415761 629.025951 
L 1236.585521 629.026203 
L 1236.585521 629.026203 
" style="fill:none;stroke:#ffa500;stroke-linecap:square;stroke-width:2;"/>
   </g>
   <g id="line2d_13">
    <path clip-path="url(#pd8440b06e6)" d="M 173.300201 483.559917 
L 177.486364 474.627802 
L 181.672527 465.373569 
L 185.858689 455.804243 
L 190.044852 445.928604 
L 198.417177 425.302622 
L 206.789503 403.602823 
L 215.161828 380.966845 
L 223.534154 357.562808 
L 236.092642 321.456965 
L 261.209618 248.662204 
L 269.581943 225.241763 
L 277.954268 202.742474 
L 282.140431 191.93409 
L 286.326594 181.470665 
L 290.512756 171.389707 
L 294.698919 161.727993 
L 298.885082 152.521343 
L 303.071244 143.804406 
L 307.257407 135.610439 
L 311.44357 127.9711 
L 315.629732 120.916242 
L 319.815895 114.473719 
L 324.002058 108.669204 
L 328.18822 103.52602 
L 332.374383 99.06498 
L 336.560546 95.30425 
L 340.746708 92.259225 
L 344.932871 89.942424 
L 349.119034 88.363404 
L 353.305197 87.528693 
L 357.491359 87.441749 
L 361.677522 88.102931 
L 365.863685 89.509501 
L 370.049847 91.655641 
L 374.23601 94.532492 
L 378.422173 98.128216 
L 382.608335 102.428078 
L 386.794498 107.414545 
L 390.980661 113.067408 
L 395.166823 119.363912 
L 399.352986 126.278918 
L 403.539149 133.78506 
L 407.725311 141.852934 
L 411.911474 150.451284 
L 416.097637 159.547204 
L 420.283799 169.106352 
L 424.469962 179.093157 
L 428.656125 189.471048 
L 432.842287 200.202665 
L 441.214613 222.575067 
L 449.586938 245.90422 
L 457.959263 269.885355 
L 487.262402 354.80312 
L 495.634728 378.284106 
L 504.007053 401.018511 
L 512.379378 422.834708 
L 520.751704 443.591506 
L 524.937866 453.53686 
L 529.124029 463.178198 
L 533.310192 472.506324 
L 537.496354 481.51381 
L 541.682517 490.194944 
L 545.86868 498.545657 
L 550.054842 506.563449 
L 554.241005 514.247311 
L 558.427168 521.597636 
L 562.61333 528.616128 
L 566.799493 535.305714 
L 570.985656 541.670441 
L 575.171818 547.715388 
L 579.357981 553.446562 
L 583.544144 558.870806 
L 587.730306 563.995702 
L 591.916469 568.829479 
L 596.102632 573.380918 
L 600.288794 577.65927 
L 604.474957 581.674168 
L 608.66112 585.435546 
L 612.847282 588.953566 
L 617.033445 592.238541 
L 621.219608 595.300873 
L 625.40577 598.150989 
L 629.591933 600.799283 
L 633.778096 603.256064 
L 637.964259 605.53151 
L 642.150421 607.635624 
L 646.336584 609.578198 
L 650.522747 611.368779 
L 654.708909 613.016644 
L 658.895072 614.530772 
L 667.267397 617.192139 
L 675.639723 619.418143 
L 684.012048 621.26844 
L 692.384373 622.796945 
L 700.756699 624.051867 
L 709.129024 625.075877 
L 717.501349 625.906381 
L 730.059837 626.859132 
L 742.618325 627.539534 
L 755.176813 628.018916 
L 771.921464 628.438261 
L 792.852278 628.735429 
L 826.341579 628.938483 
L 889.134019 629.018897 
L 1236.585521 629.026203 
L 1236.585521 629.026203 
" style="fill:none;stroke:#008080;stroke-linecap:square;stroke-width:2;"/>
   </g>
   <g id="line2d_14">
    <path clip-path="url(#pd8440b06e6)" d="M 173.300201 629.026161 
L 353.305197 628.916589 
L 386.794498 628.668609 
L 407.725311 628.310334 
L 424.469962 627.809501 
L 437.02845 627.241179 
L 449.586938 626.439766 
L 457.959263 625.737137 
L 466.331589 624.866692 
L 474.703914 623.794888 
L 483.076239 622.483179 
L 491.448565 620.887688 
L 499.82089 618.958954 
L 508.193216 616.641789 
L 512.379378 615.31873 
L 516.565541 613.875279 
L 520.751704 612.302958 
L 524.937866 610.592959 
L 529.124029 608.736172 
L 533.310192 606.723196 
L 537.496354 604.544373 
L 541.682517 602.189814 
L 545.86868 599.649434 
L 550.054842 596.912992 
L 554.241005 593.970136 
L 558.427168 590.810452 
L 562.61333 587.423519 
L 566.799493 583.798966 
L 570.985656 579.926539 
L 575.171818 575.796171 
L 579.357981 571.398052 
L 583.544144 566.72271 
L 587.730306 561.761093 
L 591.916469 556.504654 
L 596.102632 550.945443 
L 600.288794 545.076194 
L 604.474957 538.890426 
L 608.66112 532.382531 
L 612.847282 525.547879 
L 617.033445 518.382907 
L 621.219608 510.885223 
L 625.40577 503.053692 
L 629.591933 494.888535 
L 633.778096 486.391412 
L 637.964259 477.56551 
L 642.150421 468.41562 
L 646.336584 458.948208 
L 650.522747 449.171479 
L 658.895072 428.731925 
L 667.267397 407.199289 
L 675.639723 384.706251 
L 684.012048 361.41602 
L 692.384373 337.521652 
L 725.873675 240.691523 
L 734.246 217.550788 
L 742.618325 195.434852 
L 746.804488 184.856844 
L 750.990651 174.649212 
L 755.176813 164.848989 
L 759.362976 155.492326 
L 763.549139 146.61427 
L 767.735301 138.248549 
L 771.921464 130.427356 
L 776.107627 123.181148 
L 780.29379 116.538441 
L 784.479952 110.525631 
L 788.666115 105.166815 
L 792.852278 100.483631 
L 797.03844 96.495114 
L 801.224603 93.217566 
L 805.410766 90.664443 
L 809.596928 88.846268 
L 813.783091 87.770552 
L 817.969254 87.441749 
L 822.155416 87.861221 
L 826.341579 89.02723 
L 830.527742 90.934951 
L 834.713904 93.576503 
L 838.900067 96.941003 
L 843.08623 101.014646 
L 847.272392 105.780791 
L 851.458555 111.220082 
L 855.644718 117.310574 
L 859.83088 124.027882 
L 864.017043 131.345345 
L 868.203206 139.234199 
L 872.389368 147.663769 
L 876.575531 156.601662 
L 880.761694 166.013981 
L 884.947856 175.865532 
L 889.134019 186.120046 
L 893.320182 196.740397 
L 901.692507 218.927173 
L 910.064832 242.120161 
L 918.437158 266.013951 
L 951.926459 362.846831 
L 960.298785 386.093949 
L 968.67111 408.533121 
L 977.043435 430.002979 
L 985.415761 450.372695 
L 989.601923 460.112427 
L 993.788086 469.541753 
L 997.974249 478.652683 
L 1002.160411 487.438955 
L 1006.346574 495.895978 
L 1010.532737 504.020755 
L 1014.718899 511.811804 
L 1018.905062 519.269073 
L 1023.091225 526.393854 
L 1027.277387 533.188687 
L 1031.46355 539.657269 
L 1035.649713 545.804355 
L 1039.835875 551.635662 
L 1044.022038 557.157772 
L 1048.208201 562.378038 
L 1052.394363 567.304489 
L 1056.580526 571.945737 
L 1060.766689 576.31089 
L 1064.952852 580.409464 
L 1069.139014 584.251304 
L 1073.325177 587.846506 
L 1077.51134 591.20534 
L 1081.697502 594.338187 
L 1085.883665 597.255469 
L 1090.069828 599.967596 
L 1094.25599 602.48491 
L 1098.442153 604.817634 
L 1102.628316 606.975832 
L 1106.814478 608.969366 
L 1111.000641 610.807866 
L 1115.186804 612.500697 
L 1119.372966 614.056935 
L 1123.559129 615.485347 
L 1131.931454 617.992115 
L 1140.30378 620.084386 
L 1148.676105 621.819873 
L 1157.04843 623.250545 
L 1165.420756 624.422706 
L 1173.793081 625.377209 
L 1182.165406 626.149748 
L 1194.723894 627.033777 
L 1207.282383 627.663176 
L 1224.027033 628.220334 
L 1236.585521 628.490676 
L 1236.585521 628.490676 
" style="fill:none;stroke:#dc143c;stroke-linecap:square;stroke-width:2;"/>
   </g>
   <g id="patch_3">
    <path d="M 172.8 629.2656 
L 172.8 84.8448 
" style="fill:none;stroke:#000000;stroke-linecap:square;stroke-linejoin:miter;stroke-width:0.8;"/>
   </g>
   <g id="patch_4">
    <path d="M 1244.16 629.2656 
L 1244.16 84.8448 
" style="fill:none;stroke:#000000;stroke-linecap:square;stroke-linejoin:miter;stroke-width:0.8;"/>
   </g>
   <g id="patch_5">
    <path d="M 172.8 629.2656 
L 1244.16 629.2656 
" style="fill:none;stroke:#000000;stroke-linecap:square;stroke-linejoin:miter;stroke-width:0.8;"/>
   </g>
   <g id="patch_6">
    <path d="M 172.8 84.8448 
L 1244.16 84.8448 
" style="fill:none;stroke:#000000;stroke-linecap:square;stroke-linejoin:miter;stroke-width:0.8;"/>
   </g>
   <g id="legend_1">
    <g id="patch_7">
     <path d="M 1164.91625 136.879175 
L 1237.16 136.879175 
Q 1239.16 136.879175 1239.16 134.879175 
L 1239.16 91.8448 
Q 1239.16 89.8448 1237.16 89.8448 
L 1164.91625 89.8448 
Q 1162.91625 89.8448 1162.91625 91.8448 
L 1162.91625 134.879175 
Q 1162.91625 136.879175 1164.91625 136.879175 
z
" style="fill:#ffffff;opacity:0.8;stroke:#cccccc;stroke-linejoin:miter;"/>
    </g>
    <g id="line2d_15">
     <path d="M 1166.91625 97.943238 
L 1186.91625 97.943238 
" style="fill:none;stroke:#ffa500;stroke-linecap:square;stroke-width:2;"/>
    </g>
    <g id="line2d_16"/>
    <g id="text_14">
     <!-- Calcium -->
     <defs>
      <path d="M 64.40625 67.28125 
L 64.40625 56.890625 
Q 59.421875 61.53125 53.78125 63.8125 
Q 48.140625 66.109375 41.796875 66.109375 
Q 29.296875 66.109375 22.65625 58.46875 
Q 16.015625 50.828125 16.015625 36.375 
Q 16.015625 21.96875 22.65625 14.328125 
Q 29.296875 6.6875 41.796875 6.6875 
Q 48.140625 6.6875 53.78125 8.984375 
Q 59.421875 11.28125 64.40625 15.921875 
L 64.40625 5.609375 
Q 59.234375 2.09375 53.4375 0.328125 
Q 47.65625 -1.421875 41.21875 -1.421875 
Q 24.65625 -1.421875 15.125 8.703125 
Q 5.609375 18.84375 5.609375 36.375 
Q 5.609375 53.953125 15.125 64.078125 
Q 24.65625 74.21875 41.21875 74.21875 
Q 47.75 74.21875 53.53125 72.484375 
Q 59.328125 70.75 64.40625 67.28125 
z
" id="DejaVuSans-43"/>
      <path d="M 34.28125 27.484375 
Q 23.390625 27.484375 19.1875 25 
Q 14.984375 22.515625 14.984375 16.5 
Q 14.984375 11.71875 18.140625 8.90625 
Q 21.296875 6.109375 26.703125 6.109375 
Q 34.1875 6.109375 38.703125 11.40625 
Q 43.21875 16.703125 43.21875 25.484375 
L 43.21875 27.484375 
z
M 52.203125 31.203125 
L 52.203125 0 
L 43.21875 0 
L 43.21875 8.296875 
Q 40.140625 3.328125 35.546875 0.953125 
Q 30.953125 -1.421875 24.3125 -1.421875 
Q 15.921875 -1.421875 10.953125 3.296875 
Q 6 8.015625 6 15.921875 
Q 6 25.140625 12.171875 29.828125 
Q 18.359375 34.515625 30.609375 34.515625 
L 43.21875 34.515625 
L 43.21875 35.40625 
Q 43.21875 41.609375 39.140625 45 
Q 35.0625 48.390625 27.6875 48.390625 
Q 23 48.390625 18.546875 47.265625 
Q 14.109375 46.140625 10.015625 43.890625 
L 10.015625 52.203125 
Q 14.9375 54.109375 19.578125 55.046875 
Q 24.21875 56 28.609375 56 
Q 40.484375 56 46.34375 49.84375 
Q 52.203125 43.703125 52.203125 31.203125 
z
" id="DejaVuSans-61"/>
      <path d="M 48.78125 52.59375 
L 48.78125 44.1875 
Q 44.96875 46.296875 41.140625 47.34375 
Q 37.3125 48.390625 33.40625 48.390625 
Q 24.65625 48.390625 19.8125 42.84375 
Q 14.984375 37.3125 14.984375 27.296875 
Q 14.984375 17.28125 19.8125 11.734375 
Q 24.65625 6.203125 33.40625 6.203125 
Q 37.3125 6.203125 41.140625 7.25 
Q 44.96875 8.296875 48.78125 10.40625 
L 48.78125 2.09375 
Q 45.015625 0.34375 40.984375 -0.53125 
Q 36.96875 -1.421875 32.421875 -1.421875 
Q 20.0625 -1.421875 12.78125 6.34375 
Q 5.515625 14.109375 5.515625 27.296875 
Q 5.515625 40.671875 12.859375 48.328125 
Q 20.21875 56 33.015625 56 
Q 37.15625 56 41.109375 55.140625 
Q 45.0625 54.296875 48.78125 52.59375 
z
" id="DejaVuSans-63"/>
      <path d="M 8.5 21.578125 
L 8.5 54.6875 
L 17.484375 54.6875 
L 17.484375 21.921875 
Q 17.484375 14.15625 20.5 10.265625 
Q 23.53125 6.390625 29.59375 6.390625 
Q 36.859375 6.390625 41.078125 11.03125 
Q 45.3125 15.671875 45.3125 23.6875 
L 45.3125 54.6875 
L 54.296875 54.6875 
L 54.296875 0 
L 45.3125 0 
L 45.3125 8.40625 
Q 42.046875 3.421875 37.71875 1 
Q 33.40625 -1.421875 27.6875 -1.421875 
Q 18.265625 -1.421875 13.375 4.4375 
Q 8.5 10.296875 8.5 21.578125 
z
M 31.109375 56 
z
" id="DejaVuSans-75"/>
     </defs>
     <g transform="translate(1194.91625 101.443238)scale(0.1 -0.1)">
      <use xlink:href="#DejaVuSans-43"/>
      <use x="69.824219" xlink:href="#DejaVuSans-61"/>
      <use x="131.103516" xlink:href="#DejaVuSans-6c"/>
      <use x="158.886719" xlink:href="#DejaVuSans-63"/>
      <use x="213.867188" xlink:href="#DejaVuSans-69"/>
      <use x="241.650391" xlink:href="#DejaVuSans-75"/>
      <use x="305.029297" xlink:href="#DejaVuSans-6d"/>
     </g>
    </g>
    <g id="line2d_17">
     <path d="M 1166.91625 112.621363 
L 1186.91625 112.621363 
" style="fill:none;stroke:#008080;stroke-linecap:square;stroke-width:2;"/>
    </g>
    <g id="line2d_18"/>
    <g id="text_15">
     <!-- Carbon -->
     <defs>
      <path d="M 41.109375 46.296875 
Q 39.59375 47.171875 37.8125 47.578125 
Q 36.03125 48 33.890625 48 
Q 26.265625 48 22.1875 43.046875 
Q 18.109375 38.09375 18.109375 28.8125 
L 18.109375 0 
L 9.078125 0 
L 9.078125 54.6875 
L 18.109375 54.6875 
L 18.109375 46.1875 
Q 20.953125 51.171875 25.484375 53.578125 
Q 30.03125 56 36.53125 56 
Q 37.453125 56 38.578125 55.875 
Q 39.703125 55.765625 41.0625 55.515625 
z
" id="DejaVuSans-72"/>
      <path d="M 48.6875 27.296875 
Q 48.6875 37.203125 44.609375 42.84375 
Q 40.53125 48.484375 33.40625 48.484375 
Q 26.265625 48.484375 22.1875 42.84375 
Q 18.109375 37.203125 18.109375 27.296875 
Q 18.109375 17.390625 22.1875 11.75 
Q 26.265625 6.109375 33.40625 6.109375 
Q 40.53125 6.109375 44.609375 11.75 
Q 48.6875 17.390625 48.6875 27.296875 
z
M 18.109375 46.390625 
Q 20.953125 51.265625 25.265625 53.625 
Q 29.59375 56 35.59375 56 
Q 45.5625 56 51.78125 48.09375 
Q 58.015625 40.1875 58.015625 27.296875 
Q 58.015625 14.40625 51.78125 6.484375 
Q 45.5625 -1.421875 35.59375 -1.421875 
Q 29.59375 -1.421875 25.265625 0.953125 
Q 20.953125 3.328125 18.109375 8.203125 
L 18.109375 0 
L 9.078125 0 
L 9.078125 75.984375 
L 18.109375 75.984375 
z
" id="DejaVuSans-62"/>
      <path d="M 30.609375 48.390625 
Q 23.390625 48.390625 19.1875 42.75 
Q 14.984375 37.109375 14.984375 27.296875 
Q 14.984375 17.484375 19.15625 11.84375 
Q 23.34375 6.203125 30.609375 6.203125 
Q 37.796875 6.203125 41.984375 11.859375 
Q 46.1875 17.53125 46.1875 27.296875 
Q 46.1875 37.015625 41.984375 42.703125 
Q 37.796875 48.390625 30.609375 48.390625 
z
M 30.609375 56 
Q 42.328125 56 49.015625 48.375 
Q 55.71875 40.765625 55.71875 27.296875 
Q 55.71875 13.875 49.015625 6.21875 
Q 42.328125 -1.421875 30.609375 -1.421875 
Q 18.84375 -1.421875 12.171875 6.21875 
Q 5.515625 13.875 5.515625 27.296875 
Q 5.515625 40.765625 12.171875 48.375 
Q 18.84375 56 30.609375 56 
z
" id="DejaVuSans-6f"/>
     </defs>
     <g transform="translate(1194.91625 116.121363)scale(0.1 -0.1)">
      <use xlink:href="#DejaVuSans-43"/>
      <use x="69.824219" xlink:href="#DejaVuSans-61"/>
      <use x="131.103516" xlink:href="#DejaVuSans-72"/>
      <use x="172.216797" xlink:href="#DejaVuSans-62"/>
      <use x="235.693359" xlink:href="#DejaVuSans-6f"/>
      <use x="296.875" xlink:href="#DejaVuSans-6e"/>
     </g>
    </g>
    <g id="line2d_19">
     <path d="M 1166.91625 127.299488 
L 1186.91625 127.299488 
" style="fill:none;stroke:#dc143c;stroke-linecap:square;stroke-width:2;"/>
    </g>
    <g id="line2d_20"/>
    <g id="text_16">
     <!-- Oxygen -->
     <defs>
      <path d="M 39.40625 66.21875 
Q 28.65625 66.21875 22.328125 58.203125 
Q 16.015625 50.203125 16.015625 36.375 
Q 16.015625 22.609375 22.328125 14.59375 
Q 28.65625 6.59375 39.40625 6.59375 
Q 50.140625 6.59375 56.421875 14.59375 
Q 62.703125 22.609375 62.703125 36.375 
Q 62.703125 50.203125 56.421875 58.203125 
Q 50.140625 66.21875 39.40625 66.21875 
z
M 39.40625 74.21875 
Q 54.734375 74.21875 63.90625 63.9375 
Q 73.09375 53.65625 73.09375 36.375 
Q 73.09375 19.140625 63.90625 8.859375 
Q 54.734375 -1.421875 39.40625 -1.421875 
Q 24.03125 -1.421875 14.8125 8.828125 
Q 5.609375 19.09375 5.609375 36.375 
Q 5.609375 53.65625 14.8125 63.9375 
Q 24.03125 74.21875 39.40625 74.21875 
z
" id="DejaVuSans-4f"/>
      <path d="M 54.890625 54.6875 
L 35.109375 28.078125 
L 55.90625 0 
L 45.3125 0 
L 29.390625 21.484375 
L 13.484375 0 
L 2.875 0 
L 24.125 28.609375 
L 4.6875 54.6875 
L 15.28125 54.6875 
L 29.78125 35.203125 
L 44.28125 54.6875 
z
" id="DejaVuSans-78"/>
      <path d="M 45.40625 27.984375 
Q 45.40625 37.75 41.375 43.109375 
Q 37.359375 48.484375 30.078125 48.484375 
Q 22.859375 48.484375 18.828125 43.109375 
Q 14.796875 37.75 14.796875 27.984375 
Q 14.796875 18.265625 18.828125 12.890625 
Q 22.859375 7.515625 30.078125 7.515625 
Q 37.359375 7.515625 41.375 12.890625 
Q 45.40625 18.265625 45.40625 27.984375 
z
M 54.390625 6.78125 
Q 54.390625 -7.171875 48.1875 -13.984375 
Q 42 -20.796875 29.203125 -20.796875 
Q 24.46875 -20.796875 20.265625 -20.09375 
Q 16.0625 -19.390625 12.109375 -17.921875 
L 12.109375 -9.1875 
Q 16.0625 -11.328125 19.921875 -12.34375 
Q 23.78125 -13.375 27.78125 -13.375 
Q 36.625 -13.375 41.015625 -8.765625 
Q 45.40625 -4.15625 45.40625 5.171875 
L 45.40625 9.625 
Q 42.625 4.78125 38.28125 2.390625 
Q 33.9375 0 27.875 0 
Q 17.828125 0 11.671875 7.65625 
Q 5.515625 15.328125 5.515625 27.984375 
Q 5.515625 40.671875 11.671875 48.328125 
Q 17.828125 56 27.875 56 
Q 33.9375 56 38.28125 53.609375 
Q 42.625 51.21875 45.40625 46.390625 
L 45.40625 54.6875 
L 54.390625 54.6875 
z
" id="DejaVuSans-67"/>
     </defs>
     <g transform="translate(1194.91625 130.799488)scale(0.1 -0.1)">
      <use xlink:href="#DejaVuSans-4f"/>
      <use x="78.710938" xlink:href="#DejaVuSans-78"/>
      <use x="137.890625" xlink:href="#DejaVuSans-79"/>
      <use x="197.070312" xlink:href="#DejaVuSans-67"/>
      <use x="260.546875" xlink:href="#DejaVuSans-65"/>
      <use x="322.070312" xlink:href="#DejaVuSans-6e"/>
     </g>
    </g>
   </g>
  </g>
 </g>
 <defs>
  <clipPath id="pd8440b06e6">
   <rect height="544.4208" width="1071.36" x="172.8" y="84.8448"/>
  </clipPath>
 </defs>
</svg>
